<?xml version="1.0" encoding="UTF-8" standalone="no"?>
<!-- Created with Inkscape (http://www.inkscape.org/) -->

<svg
   width="77.844688mm"
   height="50.295616mm"
   viewBox="0 0 77.844688 50.295616"
   version="1.1"
   id="svg31125"
   inkscape:version="1.1 (c68e22c387, 2021-05-23)"
   sodipodi:docname="logo.svg"
   xmlns:inkscape="http://www.inkscape.org/namespaces/inkscape"
   xmlns:sodipodi="http://sodipodi.sourceforge.net/DTD/sodipodi-0.dtd"
   xmlns="http://www.w3.org/2000/svg"
   xmlns:svg="http://www.w3.org/2000/svg">
  <sodipodi:namedview
     id="namedview31127"
     pagecolor="#ffffff"
     bordercolor="#666666"
     borderopacity="1.0"
     inkscape:pageshadow="2"
     inkscape:pageopacity="0.0"
     inkscape:pagecheckerboard="0"
     inkscape:document-units="mm"
     showgrid="false"
     inkscape:zoom="0.970129"
     inkscape:cx="106.17145"
     inkscape:cy="95.348144"
     inkscape:window-width="1920"
     inkscape:window-height="1051"
     inkscape:window-x="-9"
     inkscape:window-y="-9"
     inkscape:window-maximized="1"
     inkscape:current-layer="layer1" />
  <defs
     id="defs31122">
    <inkscape:path-effect
       effect="spiro"
       id="path-effect14657"
       is_visible="true"
       lpeversion="1" />
    <inkscape:path-effect
       effect="spiro"
       id="path-effect14661"
       is_visible="true"
       lpeversion="1" />
    <inkscape:path-effect
       effect="spiro"
       id="path-effect14665"
       is_visible="true"
       lpeversion="1" />
    <inkscape:path-effect
       effect="spiro"
       id="path-effect14669"
       is_visible="true"
       lpeversion="1" />
    <inkscape:path-effect
       effect="spiro"
       id="path-effect14673"
       is_visible="true"
       lpeversion="1" />
  </defs>
  <g
     inkscape:groupmode="layer"
     id="layer2"
     inkscape:label="Слой 2" />
  <g
     inkscape:label="Слой 1"
     inkscape:groupmode="layer"
     id="layer1"
     transform="translate(-31.365359,-121.28491)">
    <path
       id="path846-2"
       style="fill:#a7a2ff;stroke:none;stroke-width:0.655892;stroke-linecap:round;stroke-linejoin:round"
       d="M 198.17188 0.01953125 A 94.160243 94.160243 0 0 0 105.91406 96.044922 A 94.160243 94.160243 0 0 0 201.94141 188.30078 A 94.160243 94.160243 0 0 0 294.19727 92.275391 A 94.160243 94.160243 0 0 0 198.17188 0.01953125 z M 197.92383 20.201172 A 75.290085 75.290092 88.853021 0 1 274.70508 93.96875 A 75.290085 75.290092 88.853021 0 1 200.9375 170.75 A 75.290085 75.290092 88.853021 0 1 124.15625 96.982422 A 75.290085 75.290092 88.853021 0 1 197.92383 20.201172 z "
       transform="matrix(0.26458333,0,0,0.26458333,31.365359,121.28491)" />
    <path
       style="fill:none;stroke:#000000;stroke-width:0.165;stroke-linecap:butt;stroke-linejoin:miter;stroke-miterlimit:4;stroke-dasharray:none;stroke-opacity:1"
       d="m 86.79754,146.90664 c 1.568547,2.68089 3.045859,5.41516 4.42852,8.19648 1.354075,2.72382 2.617373,5.49277 3.78709,8.3007"
       id="path4049-6"
       inkscape:path-effect="#path-effect14657"
       inkscape:original-d="m 86.79754,146.90664 c 1.47644,2.73242 2.95262,5.46458 4.42852,8.19648 1.47589,2.73191 2.525,5.53406 3.78709,8.3007" />
    <path
       style="fill:none;stroke:#000000;stroke-width:0.165;stroke-linecap:butt;stroke-linejoin:miter;stroke-miterlimit:4;stroke-dasharray:none;stroke-opacity:1"
       d="m 83.49344,152.27285 c 1.273935,2.30559 2.459371,4.66008 3.55282,7.05654 0.968941,2.12358 1.865658,4.28011 2.68808,6.46462"
       id="path4283-6"
       inkscape:path-effect="#path-effect14661"
       inkscape:original-d="m 83.49344,152.27285 c 1.18455,2.35244 2.36882,4.70461 3.55282,7.05654 1.18399,2.35191 1.79232,4.31 2.68808,6.46462" />
    <path
       style="fill:#00066c;fill-opacity:1;stroke:none;stroke-width:0.165;stroke-linecap:butt;stroke-linejoin:miter;stroke-miterlimit:4;stroke-dasharray:none;stroke-opacity:1"
       d="m 80.89551,147.62155 c -1.88694,-3.22782 -3.878465,-6.39449 -5.9704,-9.49339 -1.718652,-2.54593 -3.536868,-5.08046 -5.92775,-7.00899 -2.12981,-1.71794 -4.666707,-2.90448 -7.320968,-3.56955 -2.861664,-0.71703 -5.875422,-0.83504 -8.778745,-0.31161 -3.066331,0.55281 -6.011338,1.82861 -8.453474,3.76354 -2.104866,1.66771 -3.815959,3.80163 -5.146781,6.13415 -1.313515,2.30218 -2.272617,4.82698 -2.622629,7.45431 -0.42254,3.17176 0.05775,6.43853 1.224204,9.41812 1.195768,3.05448 3.115041,5.82859 5.581883,7.99063 2.517929,2.20682 5.607651,3.76847 8.891494,4.42145 2.474129,0.49197 5.040112,0.47059 7.524278,0.0321 2.441851,-0.43102 4.812303,-1.26385 6.987138,-2.45486 0.581236,0.59782 1.203513,1.15573 1.861,1.6685 0.637895,0.49749 1.308921,0.95249 2.00716,1.36099 -0.344914,0.20346 -0.686004,0.4134 -1.02303,0.62968 -0.58627,0.37622 -1.161298,0.77224 -1.77509,1.10165 -0.955112,0.5126 -1.990034,0.85655 -3.02224,1.18753 -1.760314,0.56444 -3.537409,1.10025 -5.363674,1.38671 -3.904749,0.61248 -7.945187,0.0561 -11.661563,-1.28953 -2.920774,-1.05757 -5.67558,-2.60608 -8.012769,-4.65227 -2.067482,-1.81007 -3.794348,-3.99674 -5.153747,-6.38481 -1.415273,-2.48622 -2.438324,-5.20026 -2.962755,-8.0126 -0.690395,-3.70235 -0.506558,-7.56181 0.507022,-11.18902 0.950018,-3.39975 2.627478,-6.59645 4.900701,-9.29705 2.721812,-3.23353 6.284361,-5.73593 10.210244,-7.30163 2.720248,-1.08488 5.62594,-1.72884 8.553991,-1.78565 3.278036,-0.0636 6.55289,0.6101 9.60087,1.81815 2.130472,0.8444 4.162507,1.95218 5.97639,3.3528 2.655796,2.05072 4.797117,4.68693 6.7882,7.38773 1.954929,2.65176 3.790755,5.39132 5.50009,8.20765 l -2.91905,5.43526 z"
       id="path4560-4"
       inkscape:path-effect="#path-effect14665"
       inkscape:original-d="m 80.89551,147.62155 c 0,0 -3.99827,-6.34445 -5.9704,-9.49339 -1.97215,-3.14893 -3.95156,-4.6724 -5.92775,-7.00899 -1.97618,-2.33658 -4.880379,-2.37944 -7.320968,-3.56955 -2.44059,-1.19011 -5.852224,-0.20747 -8.778745,-0.31161 -2.926522,-0.10411 -5.63538,2.5093 -8.453474,3.76354 -2.818094,1.25427 -3.430924,4.08969 -5.146781,6.13415 -1.715867,2.04445 -1.748149,4.96979 -2.622629,7.45431 -0.87448,2.48452 0.816406,6.279 1.224204,9.41812 0.407798,3.13912 3.721528,5.32734 5.581883,7.99063 1.860354,2.66328 5.927929,2.94789 8.891494,4.42145 2.963555,1.47356 5.016452,0.0217 7.524278,0.0321 2.507827,0.0105 6.987138,-2.45486 6.987138,-2.45486 0,0 1.24094,1.11259 1.861,1.6685 0.62008,0.55591 2.00716,1.36099 2.00716,1.36099 0,0 -0.68176,0.42005 -1.02303,0.62968 -0.34128,0.20964 -1.18312,0.73468 -1.77509,1.10165 -0.59197,0.36695 -2.01455,0.79194 -3.02224,1.18753 -1.007677,0.39558 -3.575513,0.92473 -5.363674,1.38671 -1.788161,0.46197 -7.774112,-0.85942 -11.661563,-1.28953 -3.887462,-0.4301 -5.341583,-3.10125 -8.012769,-4.65227 -2.671196,-1.55101 -3.435565,-4.25627 -5.153747,-6.38481 -1.718192,-2.12853 -1.974903,-5.34147 -2.962755,-8.0126 -0.987851,-2.67114 0.338281,-7.45908 0.507022,-11.18902 0.16874,-3.72992 3.267404,-6.19777 4.900701,-9.29705 1.633298,-3.09929 6.807093,-4.8675 10.210244,-7.30163 3.403141,-2.43413 5.702931,-1.19017 8.553991,-1.78565 2.851061,-0.59546 6.400852,1.21236 9.60087,1.81815 3.20002,0.60579 3.98453,2.23545 5.97639,3.3528 1.99185,1.11734 4.52574,4.92541 6.7882,7.38773 2.26248,2.46232 5.50009,8.20765 5.50009,8.20765 0,0 -3.60948,3.42258 -2.91905,5.43526 z"
       sodipodi:nodetypes="sssssssssssccscssssssssssssssscs" />
    <path
       style="fill:#a7a2ff;fill-opacity:1;stroke:none;stroke-width:0.165;stroke-linecap:butt;stroke-linejoin:miter;stroke-miterlimit:4;stroke-dasharray:none;stroke-opacity:1"
       d="m 88.90047,127.18732 c 0.618547,0.12427 1.228095,0.2933 1.8223,0.50535 0.629705,0.22472 1.241241,0.4973 1.84643,0.7815 0.59268,0.27833 1.179989,0.56809 1.76149,0.86908 -0.03528,0.18121 -0.07458,0.36164 -0.11788,0.5411 -0.246694,1.02257 -0.621562,2.00903 -0.99547,2.99224 -1.281112,3.36877 -2.56557,6.74376 -4.17272,9.96973 -1.212374,2.43355 -2.603675,4.77276 -3.97125,7.12261 -1.347872,2.31599 -2.83452,4.55138 -4.54138,6.6171 l -6.09842,7.38059 c -0.827322,-0.50325 -1.629309,-1.04814 -2.40191,-1.63192 -0.536834,-0.40564 -1.059486,-0.83004 -1.56668,-1.27218 0.114904,-0.10841 0.226949,-0.21985 0.33598,-0.33417 0.2908,-0.3049 0.55972,-0.62977 0.83493,-0.94881 0.802771,-0.93063 1.660181,-1.81292 2.46512,-2.74167 1.087015,-1.25422 2.075686,-2.59009 3.04425,-3.93788 1.293494,-1.79995 2.554398,-3.62557 3.69547,-5.5258 1.351755,-2.25109 2.532443,-4.60234 3.59213,-7.00477 1.729668,-3.92136 3.139556,-7.98551 4.17225,-12.14512 0.102145,-0.41143 0.200604,-0.82378 0.29536,-1.23698 z"
       id="path9194-0"
       inkscape:path-effect="#path-effect14669"
       inkscape:original-d="m 88.90047,127.18732 c 0,0 1.21513,0.33716 1.8223,0.50535 0.60717,0.1682 1.23123,0.52126 1.84643,0.7815 0.6152,0.26023 1.76149,0.86908 1.76149,0.86908 0,0 -0.0783,0.36099 -0.11788,0.5411 -0.0396,0.1801 -0.66337,1.99508 -0.99547,2.99224 -0.3321,0.99715 -2.78155,6.64675 -4.17272,9.96973 -1.39118,3.32299 -2.64724,4.74867 -3.97125,7.12261 -1.32402,2.37395 -4.54138,6.6171 -4.54138,6.6171 l -6.09842,7.38059 c 0,0 -1.601,-1.08768 -2.40191,-1.63192 -0.8009,-0.54423 -1.56668,-1.27218 -1.56668,-1.27218 0,0 0.22426,-0.22252 0.33598,-0.33417 0.11173,-0.11165 0.55689,-0.63228 0.83493,-0.94881 0.27804,-0.31653 1.64368,-1.82752 2.46512,-2.74167 0.82144,-0.91415 2.02976,-2.625 3.04425,-3.93788 1.01447,-1.31289 2.46392,-3.68361 3.69547,-5.5258 1.23154,-1.8422 2.39502,-4.66959 3.59213,-7.00477 1.19712,-2.33518 2.78177,-8.09648 4.17225,-12.14512 1.39047,-4.04863 0.29536,-1.23698 0.29536,-1.23698 z"
       sodipodi:nodetypes="csscssssccscsssssssc" />
    <path
       style="fill:#00066c;fill-opacity:1;stroke:none;stroke-width:0.264583px;stroke-linecap:butt;stroke-linejoin:miter;stroke-opacity:1"
       d="m 86.79754,146.90664 c 1.688628,2.84104 3.263854,5.74949 4.72067,8.71608 1.253558,2.55269 2.419454,5.14843 3.49494,7.7811 -0.555062,0.35324 -1.12393,0.68479 -1.70487,0.99363 -0.638655,0.33952 -1.292722,0.65195 -1.96935,0.90755 -0.523446,0.19773 -1.059834,0.3612 -1.60459,0.48901 -0.03891,-0.11392 -0.07926,-0.22734 -0.12104,-0.34024 -0.153621,-0.4151 -0.326469,-0.82277 -0.49678,-1.2313 -0.299232,-0.71779 -0.590822,-1.43873 -0.88091,-2.16026 -0.982101,-2.44276 -2.065388,-4.84494 -3.31882,-7.16022 l -1.42335,-2.62914 c 0.548587,-0.8565 1.089807,-1.71773 1.62358,-2.58354 0.568657,-0.9224 1.128862,-1.85001 1.68052,-2.78267 z"
       id="path12664-3"
       inkscape:path-effect="#path-effect14673"
       inkscape:original-d="m 86.79754,146.90664 c 0,0 3.14739,5.81098 4.72067,8.71608 1.57329,2.90509 3.49494,7.7811 3.49494,7.7811 0,0 -1.13631,0.66268 -1.70487,0.99363 -0.56856,0.33095 -1.31263,0.60529 -1.96935,0.90755 -0.65672,0.30225 -1.60459,0.48901 -1.60459,0.48901 0,0 -0.0804,-0.22657 -0.12104,-0.34024 -0.0405,-0.11368 -0.33092,-0.82061 -0.49678,-1.2313 -0.16587,-0.4107 -0.58701,-1.43992 -0.88091,-2.16026 -0.2939,-0.72036 -3.31882,-7.16022 -3.31882,-7.16022 l -1.42335,-2.62914 c 0,0 1.08267,-1.7221 1.62358,-2.58354 0.54093,-0.86144 1.68052,-2.78267 1.68052,-2.78267 z"
       sodipodi:nodetypes="cscsscsssccsc" />
  </g>
</svg>
